<svg height="512pt" viewBox="-43 0 512 512.00019" width="512pt" xmlns="http://www.w3.org/2000/svg"><path d="m349.953125 315.734375-56.867187-.574219 1.707031-2.789062c8.105469-12.925782 12.40625-27.871094 12.410156-43.128906v-64.441407h12.796875c16.496094-.027343 29.847656-13.421875 29.820312-29.914062-.011718-7.816407-3.085937-15.3125-8.5625-20.886719 0-.144531.078126-.253906.078126-.402344v-61.285156c-.460938-13.695312-11.902344-24.445312-25.601563-24.046875h-8.535156c-.027344-23.554687-19.113281-42.640625-42.664063-42.667969h-141.535156l-23.097656-23.097656c-3.335938-3.332031-8.738282-3.332031-12.070313 0-1.597656 1.601562-2.496093 3.769531-2.5 6.03125v59.734375c.027344 20.265625 14.28125 37.730469 34.136719 41.8125v34.988281h-12.800781c-16.496094 0-29.867188 13.371094-29.867188 29.867188 0 16.492187 13.371094 29.867187 29.867188 29.867187h12.800781v61.046875c.035156 17.601563 5.742188 34.722656 16.273438 48.828125l.792968 1.058594h-59.734375c-42.398437.046875-76.753906 34.402344-76.800781 76.796875v119.46875h426.667969v-119.46875c-.035157-42.363281-34.347657-76.714844-76.714844-76.796875zm-230.484375-136.535156v8.535156h-12.800781c-7.070313 0-12.800781-5.734375-12.800781-12.800781 0-7.070313 5.730468-12.800782 12.800781-12.800782h12.800781zm-51.203125 315.734375h-51.199219v-34.132813h51.199219zm0-93.867188v42.667969h-51.199219v-51.199219c.058594-29.660156 21.847656-54.792968 51.199219-59.050781zm34.136719 93.867188h-17.070313v-51.199219h17.070313zm0-68.265625h-17.070313v-17.066407h17.070313zm0-34.132813h-17.070313v-59.734375h17.070313zm230.398437-217.601562c0 7.066406-5.730469 12.800781-12.800781 12.800781h-12.796875v-25.601563h12.796875c7.070312 0 12.800781 5.730469 12.800781 12.800782zm-204.800781-81.066406c-14.136719 0-25.597656-11.464844-25.597656-25.601563v-39.132813l11.03125 11.03125c1.601562 1.601563 3.769531 2.5 6.035156 2.5h145.066406c14.136719 0 25.597656 11.460938 25.597656 25.601563v7.824219c0 .121094.070313.230468.070313.351562 0 .117188-.070313.230469-.070313.355469 0 4.714844 3.824219 8.535156 8.535157 8.535156h17.066406c4.269531-.378906 8.058594 2.722657 8.535156 6.980469v53.1875c-1.410156-.25-2.835937-.394531-4.269531-.433594h-16.765625l-31.574219-47.402344c-1.734375-2.546874-4.714844-3.945312-7.78125-3.652343-.257812 0-.480468-.148438-.742187-.148438h-101.003907c-.261718.039063-.519531.089844-.773437.15625-.597656.054688-1.1875.175781-1.761719.359375-.488281.148438-.960937.34375-1.414062.578125-.984375.539063-1.855469 1.261719-2.5625 2.132813-.175782.214844-.425782.34375-.578125.574218l-18.507813 27.773438v-23.039062c0-4.710938-3.820312-8.53125-8.535156-8.53125zm87.628906 256c-20.234375-.046876-39.28125-9.570313-51.464844-25.730469l-14.769531-19.703125c-8.324219-11.144532-12.835937-24.675782-12.859375-38.585938v-50.5l9.429688 18.867188c1.835937 3.671875 6.027344 5.511718 9.972656 4.386718l57.398438-16.394531 57.394531 16.394531c4.273437 1.21875 8.769531-1.042968 10.332031-5.207031l9.070312-24.199219v60.046876c.007813 12.054687-3.382812 23.867187-9.777343 34.082031l-10.1875 16.316406c-11.710938 18.847656-32.347657 30.285156-54.539063 30.226563zm40.371094 6.347656v33.015625l-14.359375-4.785157-19.773437-6.597656v-11.308594c12.003906-.859374 23.664062-4.386718 34.132812-10.324218zm-51.199219 9.914062v11.71875l-19.761719 6.585938-14.371093 4.796875v-35.949219c10.265625 6.792969 21.933593 11.1875 34.132812 12.847656zm-34.132812-161.328125c13.554687-.023437 25.808593-8.058593 31.230469-20.480469l-4.964844 24.804688-38.871094 11.09375-14.574219-29.160156c6.386719 8.609375 16.460938 13.703125 27.179688 13.742187zm-17.066407-34.136719c0-9.425781 7.640626-17.066406 17.066407-17.066406s17.066406 7.640625 17.066406 17.066406c0 9.425782-7.640625 17.070313-17.066406 17.070313s-17.066407-7.644531-17.066407-17.070313zm102.398438 34.136719c7.21875-.015625 14.246094-2.34375 20.046875-6.640625l-8.203125 21.871094-52.171875-14.898438c-.09375 0-.1875 0-.289063-.042968-.070312-.035156-.140624-.066406-.214843-.09375l5.164062-25.796875h2.746094c3.878906 15.023437 17.40625 25.542969 32.921875 25.601562zm-17.066406-34.136719c0-9.425781 7.640625-17.066406 17.066406-17.066406s17.066406 7.640625 17.066406 17.066406c0 9.425782-7.640625 17.070313-17.066406 17.070313s-17.066406-7.644531-17.066406-17.070313zm50.269531-7.609374c-4.128906-18.320313-22.328125-29.824219-40.648437-25.695313-12.476563 2.8125-22.316407 12.382813-25.476563 24.773437h-19.488281c-4.691406-18.21875-23.261719-29.1875-41.480469-24.5-15.070313 3.878907-25.59375 17.472657-25.574219 33.03125.046875 3.261719.566406 6.5 1.542969 9.609376l-1.542969-3.089844v-21.023438l30.164063-45.226562h93.269531l30.167969 45.226562v4.394532zm-84.402344 331.878906h-85.332031v-162.132813h29.867188l1.183593 1.585938c1.015625 1.355469 2.175781 2.558593 3.269531 3.867187-.082031.308594-.144531.625-.1875.945313v61.867187c0 4.710938 3.820313 8.535156 8.53125 8.535156.917969-.003906 1.828126-.148437 2.699219-.4375l19.105469-6.375 20.863281 34.773438zm-4.265625-97.664063 12.800782-4.265625 12.796874 4.265625-12.796874 21.332031zm106.667969 3.796875v93.867188h-85.335937v-57.371094l20.863281-34.789062 19.109375 6.375c.867187.292968 1.777344.445312 2.695312.453124 4.710938 0 8.53125-3.824218 8.53125-8.535156v-58.027344c3.347656-3.382812 6.394532-7.054687 9.105469-10.964843l25.03125.289062zm34.132813 93.867188h-17.066407v-51.199219h17.066407zm0-68.265625h-17.066407v-17.066407h17.066407zm0-34.132813h-17.066407v-59.734375h17.066407zm68.265624 102.398438h-51.199218v-34.132813h51.199218zm0-51.199219h-51.199218v-110.25c29.351562 4.257813 51.144531 29.390625 51.199218 59.050781zm0 0"/><path d="m232.902344 241.433594-7.066406 7.074218c-4.792969 4.8125-11.3125 7.511719-18.109376 7.492188h-11.457031c-4.714843 0-8.535156 3.820312-8.535156 8.53125 0 4.714844 3.820313 8.535156 8.535156 8.535156h11.457031c11.324219.03125 22.191407-4.464844 30.175782-12.492187l7.066406-7.074219c3.390625-3.273438 3.484375-8.675781.207031-12.066406-3.273437-3.390625-8.675781-3.484375-12.066406-.210938-.070313.070313-.140625.140625-.207031.210938zm0 0"/><path d="m238.933594 426.667969h17.066406v17.066406h-17.066406zm0 0"/><path d="m238.933594 460.800781h17.066406v17.066407h-17.066406zm0 0"/></svg>