<?xml version="1.0" encoding="iso-8859-1"?>
<!-- Generator: Adobe Illustrator 19.0.0, SVG Export Plug-In . SVG Version: 6.00 Build 0)  -->
<svg version="1.1" id="Layer_1" xmlns="http://www.w3.org/2000/svg" xmlns:xlink="http://www.w3.org/1999/xlink" x="0px" y="0px"
	 viewBox="0 0 512 512" style="enable-background:new 0 0 512 512;" xml:space="preserve">
<g>
	<g>
		<path d="M372.281,225.6h-30.02c13.188-34.28,12.906-77.083-1.352-118.097c-19.269-55.446-60.98-97.474-106.26-107.074
			c-8.014-1.701-15.912,1.745-20.112,8.786c-4.244,7.115-3.517,15.798,1.85,22.116c3.012,3.551,5.559,7.521,7.581,11.815
			c0.28,0.813,0.663,1.603,1.153,2.352c1.177,2.072,17.252,32.456-25.201,74.905c-31.327,31.328-35.593,63.52-33.577,85.179
			c0.013,0.243,0.034,0.485,0.063,0.729c0.781,6.551,2.218,13.042,4.255,19.29h-30.942c-5.995,0-10.857,4.861-10.857,10.857
			c0,22.453,5.936,44.526,17.163,63.831c10.051,17.281,24.119,32.014,40.869,42.88L217,503.152
			c0.965,5.132,5.448,8.849,10.669,8.849h56.66c5.222,0,9.704-3.718,10.669-8.849l30.107-159.984
			c16.748-10.865,30.817-25.598,40.869-42.88c11.229-19.305,17.164-41.378,17.164-63.831
			C383.138,230.461,378.276,225.6,372.281,225.6z M215.274,135.758c52.132-52.131,32.589-93.967,28.841-100.774
			c-1.789-3.961-3.901-7.738-6.309-11.295c35.042,11.024,66.902,45.799,82.591,90.943c13.741,39.53,12.994,80.46-1.76,110.969
			h-39.056c7.666-7.639,11.857-18.191,13.925-25.088c6.555-21.85,5.139-49.259-3.88-75.192c-0.519-1.495-1.072-3.009-1.643-4.497
			c-1.516-3.955-5.191-6.669-9.418-6.949c-4.229-0.293-8.229,1.922-10.256,5.639c-7.362,13.516-17.456,26.732-30.002,39.278
			c-13.167,13.167-19.201,27.141-17.936,41.535c0.017,0.192,0.039,0.384,0.066,0.574c0.4,2.815,1.06,5.599,1.96,8.275l0.029,0.086
			h-0.001c2.116,6.331,5.502,11.91,9.82,16.337h-38.429c-0.845-1.974-1.609-3.988-2.29-6.032
			c-1.675-4.986-2.854-10.158-3.507-15.383c-0.005-0.074-0.012-0.15-0.02-0.224C186.33,186.962,189.703,161.328,215.274,135.758z
			 M272.709,194.273c-2.87,9.563-7.668,16.816-12.267,18.563c-1.016,0.314-2.042,0.656-3.051,1.023
			c-0.763,0.277-1.423,0.4-2.139,0.4c-1.308,0-2.844-0.473-4.365-1.352c-0.031-0.02-0.065-0.039-0.097-0.059
			c-3.445-2.064-6.205-5.783-7.772-10.471c-0.009-0.025-0.017-0.05-0.025-0.075c-0.007-0.017-0.012-0.035-0.018-0.053
			c-0.446-1.327-0.782-2.709-0.998-4.112c-0.381-4.995,0.537-12.842,11.686-23.991c7.569-7.569,14.359-15.391,20.318-23.403
			C276.889,166.388,276.504,181.617,272.709,194.273z M275.323,490.286h-38.65l-7.151-37.996h52.951L275.323,490.286z
			 M286.561,430.575h-61.124l-4.51-23.965h70.144L286.561,430.575z M312.171,325.674c-3.71,1.157-6.673,4.273-7.442,8.36
			l-9.572,50.862H216.84l-9.572-50.862c-0.768-4.085-3.731-7.201-7.439-8.359c-12.404-7.828-22.878-18.094-30.933-29.955h37.315
			c5.995,0,10.857-4.862,10.857-10.857c0-5.995-4.862-10.857-10.857-10.857h-48.657c-3.267-8.522-5.446-17.492-6.411-26.691h35.814
			c0.011,0,0.021,0.002,0.031,0.002c0.012,0,0.024-0.002,0.036-0.002h173.831C357.506,279.242,339.545,308.398,312.171,325.674z"/>
	</g>
</g>
</svg>
